# xmcd
#
# Track frame offsets:
#	150
#	16971
#	33797
#	52731
#	69257
#	89618
#	106288
#	126283
#	144613
#	161588
#	186260
#	203728
#
# Disc length: 2996 seconds
#
# Revision: 1
# Processed by: cddbd v1.5.2PL0 Copyright (c) Steve Scherf et al.
# Submitted via: audiograbber 1.83.01
#
DISCID=9c0bb20c
DTITLE=Tina Arena - Songs Of Love and Loss
DYEAR=2007
DGENRE=Pop
TTITLE0=The Look Of Love
TTITLE1=I Just Don't Know What To Do With Myself
TTITLE2=So Far Away
TTITLE3=To Sir With Love
TTITLE4=The Man With The Child In His Eyes
TTITLE5=Do You Know Where You're Going To
TTITLE6=Love Hangover
TTITLE7=I Only Want To Be With You
TTITLE8=The Windmills Of Your Mind
TTITLE9=Everybody Hurts
TTITLE10=Woman
TTITLE11=Until
EXTD=
EXTT0=
EXTT1=
EXTT2=
EXTT3=
EXTT4=
EXTT5=
EXTT6=
EXTT7=
EXTT8=
EXTT9=
EXTT10=
EXTT11=
PLAYORDER=
